<mxfile host="app.diagrams.net" modified="2023-07-01T13:30:14.648Z" agent="Mozilla/5.0 (Windows NT 10.0; Win64; x64) AppleWebKit/537.36 (KHTML, like Gecko) Chrome/114.0.0.0 Safari/537.36" version="21.5.2" etag="nLpf87tsofUY_QFhr64Z" type="github">
  <diagram name="第 1 页" id="b0n9qcq1Chyljqh7CIiN">
    <mxGraphModel>
      <root>
        <mxCell id="0" />
        <mxCell id="1" parent="0" />
      </root>
    </mxGraphModel>
  </diagram>
</mxfile>
